<?xml version="1.0" encoding="utf-8"?>
<!-- Generator: Adobe Illustrator 25.0.1, SVG Export Plug-In . SVG Version: 6.00 Build 0)  -->
<svg version="1.0"
	 id="svg3282" xmlns:cc="http://creativecommons.org/ns#" xmlns:dc="http://purl.org/dc/elements/1.1/" xmlns:rdf="http://www.w3.org/1999/02/22-rdf-syntax-ns#" xmlns:svg="http://www.w3.org/2000/svg"
	 xmlns="http://www.w3.org/2000/svg" xmlns:xlink="http://www.w3.org/1999/xlink" x="0px" y="0px" viewBox="0 0 171.4 127.9"
	 style="enable-background:new 0 0 171.4 127.9;" xml:space="preserve">
<style type="text/css">
	.st0{clip-path:url(#SVGID_2_);}
	.st1{fill:#0A0D0E;}
	.st2{fill:#FFFFFF;}
</style>
<g id="g3290" transform="matrix(1.25,0,0,-1.25,-74.979125,191.29787)">
	<g>
		<defs>
			<rect id="SVGID_1_" x="88.3" y="61.8" width="80.6" height="80.1"/>
		</defs>
		<clipPath id="SVGID_2_">
			<use xlink:href="#SVGID_1_"  style="overflow:visible;"/>
		</clipPath>
		<g id="g3386" class="st0">
			<g id="g3392" transform="translate(90.3513,127.0783)">
				<path id="path3394" class="st1" d="M36.3-19.2c0-2.4-2-4.4-4.4-4.4H10.4c-2.4,0-4.4,2-4.4,4.4V2.4c0,2.4,2,4.4,4.4,4.4h21.6
					c2.4,0,4.4-2,4.4-4.4V-19.2z"/>
			</g>
			<g id="g3396" transform="translate(124.4337,127.0783)">
				<path id="path3398" class="st1" d="M36.3-19.2c0-2.4-2-4.4-4.4-4.4H10.4c-2.4,0-4.4,2-4.4,4.4V2.4c0,2.4,2,4.4,4.4,4.4h21.6
					c2.4,0,4.4-2,4.4-4.4V-19.2z"/>
			</g>
			<g id="g3400" transform="translate(90.3513,93.4031)">
				<path id="path3402" class="st1" d="M36.3-19.2c0-2.4-2-4.4-4.4-4.4H10.4c-2.4,0-4.4,2-4.4,4.4V2.4c0,2.4,2,4.4,4.4,4.4h21.6
					c2.4,0,4.4-2,4.4-4.4V-19.2z"/>
			</g>
			<g id="g3404" transform="translate(124.4337,93.4024)">
				<path id="path3406" class="st1" d="M36.3-19.2c0-2.4-2-4.4-4.4-4.4H10.4c-2.4,0-4.4,2-4.4,4.4V2.4c0,2.4,2,4.4,4.4,4.4h21.6
					c2.4,0,4.4-2,4.4-4.4V-19.2z"/>
			</g>
			<g id="g3408" transform="translate(109.2889,142.3874)">
				<path id="path3410" class="st2" d="M36.3-19.2c-1.4,0-2.5-0.4-3.4-1.3c-0.9-0.9-1.3-2-1.3-3.3c0-1.3,0.4-2.4,1.3-3.2
					c0.9-0.9,2-1.3,3.3-1.3c1.3,0,2.5,0.4,3.4,1.3c0.9,0.9,1.3,2,1.3,3.3c0,1.3-0.4,2.3-1.3,3.2C38.8-19.6,37.7-19.2,36.3-19.2
					 M36.3-17.5c1.9,0,3.4-0.6,4.6-1.8s1.9-2.7,1.9-4.4c0-1.8-0.6-3.2-1.9-4.4c-1.2-1.2-2.8-1.7-4.7-1.7c-1.8,0-3.3,0.6-4.5,1.7
					c-1.2,1.2-1.8,2.6-1.8,4.4c0,1.8,0.6,3.3,1.8,4.5C32.9-18.1,34.4-17.5,36.3-17.5"/>
			</g>
			<g id="g3412" transform="translate(74.1758,108.6519)">
				<path id="path3414" class="st2" d="M36.3-19.2h-2.2v-8.9h2.2c0.9,0,1.5,0.1,2,0.2c0.5,0.1,0.9,0.3,1.2,0.4
					c0.3,0.2,0.6,0.4,0.9,0.7c0.9,0.9,1.3,1.9,1.3,3.3c0,1.3-0.4,2.3-1.3,3.2c-0.3,0.3-0.7,0.6-1.1,0.7c-0.4,0.2-0.8,0.3-1.2,0.4
					C37.8-19.2,37.2-19.2,36.3-19.2 M32.5-29.1v10.9c0,0.3,0.2,0.6,0.6,0.6h3.5c1.6,0,2.9-0.2,3.9-0.7c1-0.5,1.7-1.2,2.3-2.2
					c0.6-1,0.8-2,0.8-3.1c0-0.8-0.2-1.6-0.5-2.3c-0.3-0.7-0.8-1.4-1.3-1.9c-0.6-0.6-1.3-1-2-1.3c-0.5-0.2-0.9-0.3-1.2-0.4
					c-0.4-0.1-1.1-0.1-2.2-0.1c0,0-2.8,0-3.2,0C32.7-29.6,32.5-29.3,32.5-29.1"/>
			</g>
			<g id="g3416" transform="translate(111.9753,99.7086)">
				<path id="path3418" class="st2" d="M36.3-19.2c0,0-4.5,0-4.5,0v3.7l4.2,0c0.4,0,0.8,0.3,0.8,0.8c0,0.4-0.3,0.8-0.8,0.8
					c0,0-4.2,0-4.2,0v3.7h4.3c0,0,0,0,0,0c0.4,0,0.8,0.3,0.8,0.8s-0.3,0.8-0.8,0.8c0,0-4,0-5.5,0c-0.3,0-0.5-0.3-0.5-0.5v-10.9
					c0-0.3,0.3-0.5,0.5-0.5c1.5,0,5.7,0,5.7,0c0.4,0,0.8,0.3,0.8,0.8C37.1-19.5,36.8-19.2,36.3-19.2"/>
			</g>
			<g id="g3420" transform="translate(79.4329,134.0546)">
				<path id="path3422" class="st2" d="M36.3-19.2c-0.1,0-0.3-0.1-0.3-0.1c-1-0.5-2.1-0.7-3.1-0.7c-1.4,0-2.5,0.4-3.4,1.3
					c-0.9,0.8-1.3,1.9-1.3,3.3c0,1.3,0.5,2.4,1.4,3.3c0.9,0.9,2.1,1.3,3.4,1.3c1,0,1.9-0.2,2.9-0.6c0.1-0.1,0.2-0.1,0.4-0.1
					c0.4,0,0.8,0.4,0.8,0.8c0,0.3-0.3,0.7-0.5,0.8c-1.3,0.5-2.6,0.8-3.7,0.8c-1.8,0-3.4-0.6-4.6-1.8c-1.2-1.2-1.9-2.7-1.9-4.4
					c0-1.1,0.3-2.1,0.8-3.1c0.5-0.9,1.3-1.7,2.2-2.2c0.9-0.5,2.1-0.8,3.4-0.8c1.4,0,2.7,0.3,3.8,0.8c0.3,0.1,0.5,0.4,0.5,0.8
					C37.2-19.5,36.8-19.2,36.3-19.2"/>
			</g>
		</g>
	</g>
</g>
</svg>
